#define 15va_width 20
#define 15va_height 10
static unsigned char 15va_bits[] = {
   0x00, 0x00, 0x00, 0xf2, 0x00, 0x00, 0x13, 0x00, 0x00, 0x12, 0x00, 0x00,
   0x72, 0x26, 0x07, 0x82, 0xa4, 0x04, 0x82, 0xa4, 0x04, 0x82, 0x94, 0x04,
   0x77, 0x0c, 0x0f, 0x00, 0x00, 0x00 };
