#define 8va_width 20
#define 8va_height 10
static unsigned char 8va_bits[] = {
   0x38, 0x00, 0x00, 0x44, 0x00, 0x00, 0x44, 0x00, 0x00, 0x44, 0x00, 0x00,
   0x38, 0x26, 0x07, 0x44, 0xa4, 0x04, 0x44, 0xa4, 0x04, 0x44, 0x94, 0x04,
   0x38, 0x0c, 0x0f, 0x00, 0x00, 0x00 };
