#define 0_width 14
#define 0_height 21
static unsigned char 0_bits[] = {
   0xe0, 0x03, 0xf8, 0x07, 0xfc, 0x0f, 0x3c, 0x1e, 0x1e, 0x1c, 0x1e, 0x3e,
   0x0f, 0x3e, 0x0f, 0x3b, 0x87, 0x31, 0x87, 0x31, 0xc7, 0x30, 0x47, 0x38,
   0x6f, 0x38, 0x3f, 0x38, 0x3f, 0x38, 0x1e, 0x3c, 0x1e, 0x1c, 0x3e, 0x1e,
   0xfc, 0x0f, 0xf8, 0x07, 0xe0, 0x03 };
