#define 1_width 14
#define 1_height 21
static unsigned char 1_bits[] = {
   0x00, 0x03, 0x80, 0x03, 0xc0, 0x03, 0xf0, 0x03, 0xf8, 0x03, 0xfc, 0x03,
   0xfc, 0x03, 0xcc, 0x03, 0xc4, 0x03, 0xc0, 0x03, 0xc0, 0x03, 0xc0, 0x03,
   0xc0, 0x03, 0xc0, 0x03, 0xc0, 0x03, 0xc0, 0x03, 0xc0, 0x03, 0xc0, 0x03,
   0xc0, 0x03, 0xc0, 0x03, 0xc0, 0x03 };
