#define 2_width 14
#define 2_height 21
static unsigned char 2_bits[] = {
   0xf8, 0x01, 0xfe, 0x07, 0xff, 0x0f, 0x0e, 0x1f, 0x04, 0x1e, 0x00, 0x1e,
   0x00, 0x1e, 0x00, 0x1f, 0x00, 0x0f, 0x80, 0x0f, 0x80, 0x07, 0xc0, 0x07,
   0xe0, 0x03, 0xe0, 0x01, 0xf0, 0x00, 0xf8, 0x00, 0x7c, 0x00, 0x3c, 0x00,
   0xfe, 0x3f, 0xff, 0x3f, 0xff, 0x3f };
