#define 3_width 14
#define 3_height 21
static unsigned char 3_bits[] = {
   0xf8, 0x01, 0xfc, 0x07, 0xfe, 0x0f, 0x0c, 0x1f, 0x04, 0x1e, 0x00, 0x1e,
   0x00, 0x1e, 0x00, 0x0f, 0xe0, 0x07, 0xe0, 0x03, 0xe0, 0x0f, 0x00, 0x1f,
   0x00, 0x3e, 0x00, 0x3c, 0x00, 0x3c, 0x00, 0x3c, 0x02, 0x3c, 0x0e, 0x1f,
   0xff, 0x1f, 0xfe, 0x0f, 0xf8, 0x03 };
