#define 4_width 14
#define 4_height 21
static unsigned char 4_bits[] = {
   0x00, 0x18, 0x00, 0x1c, 0x00, 0x1e, 0x00, 0x1f, 0x80, 0x1f, 0xc0, 0x1f,
   0xe0, 0x1f, 0xf0, 0x1e, 0x70, 0x1e, 0x38, 0x1e, 0x1c, 0x1e, 0x0e, 0x1e,
   0x07, 0x1e, 0xff, 0x3f, 0xff, 0x3f, 0xff, 0x3f, 0x00, 0x1e, 0x00, 0x1e,
   0x00, 0x1e, 0x00, 0x1e, 0x00, 0x1e };
