#define 5_width 14
#define 5_height 21
static unsigned char 5_bits[] = {
   0xfe, 0x1f, 0xfe, 0x1f, 0xfe, 0x1f, 0x1e, 0x00, 0x1e, 0x00, 0x1e, 0x00,
   0xfe, 0x03, 0xfe, 0x0f, 0xfe, 0x1f, 0x0e, 0x1f, 0x04, 0x3e, 0x00, 0x3c,
   0x00, 0x3c, 0x00, 0x3c, 0x00, 0x3c, 0x00, 0x3c, 0x04, 0x1e, 0x0e, 0x1f,
   0xff, 0x0f, 0xfe, 0x07, 0xf8, 0x01 };
