#define 6_width 14
#define 6_height 21
static unsigned char 6_bits[] = {
   0x00, 0x03, 0xc0, 0x07, 0xe0, 0x03, 0xf0, 0x01, 0xf8, 0x00, 0x7c, 0x00,
   0x3c, 0x00, 0x1e, 0x00, 0xfe, 0x03, 0xff, 0x0f, 0xff, 0x1f, 0x1f, 0x1e,
   0x0f, 0x3c, 0x0f, 0x3c, 0x0f, 0x3c, 0x0f, 0x3c, 0x0e, 0x3c, 0x1e, 0x1e,
   0xfc, 0x1f, 0xf8, 0x0f, 0xf0, 0x03 };
