#define 7_width 14
#define 7_height 21
static unsigned char 7_bits[] = {
   0xff, 0x3f, 0xff, 0x3f, 0xff, 0x3f, 0x00, 0x3c, 0x00, 0x1e, 0x00, 0x1e,
   0x00, 0x0f, 0x00, 0x0f, 0x80, 0x07, 0x80, 0x07, 0xc0, 0x03, 0xc0, 0x03,
   0xe0, 0x01, 0xe0, 0x01, 0xf0, 0x01, 0xf0, 0x00, 0xf0, 0x00, 0x78, 0x00,
   0x78, 0x00, 0x7c, 0x00, 0x3c, 0x00 };
