#define 8_width 14
#define 8_height 21
static unsigned char 8_bits[] = {
   0xf0, 0x03, 0xf8, 0x0f, 0xfc, 0x0f, 0x3e, 0x1f, 0x1e, 0x1e, 0x1e, 0x1e,
   0x1e, 0x1e, 0x3c, 0x0f, 0xfc, 0x0f, 0xf8, 0x03, 0xfc, 0x07, 0xbe, 0x0f,
   0x1e, 0x1e, 0x0f, 0x3e, 0x0f, 0x3c, 0x0f, 0x3c, 0x0f, 0x3c, 0x1f, 0x3e,
   0xfe, 0x1f, 0xfc, 0x0f, 0xf0, 0x03 };
