#define 9_width 14
#define 9_height 21
static unsigned char 9_bits[] = {
   0xf0, 0x03, 0xfc, 0x07, 0xfe, 0x0f, 0x1e, 0x1e, 0x0f, 0x1c, 0x0f, 0x3c,
   0x0f, 0x3c, 0x0f, 0x3c, 0x0f, 0x3c, 0x1e, 0x3e, 0xfe, 0x3f, 0xfc, 0x3f,
   0xf0, 0x1f, 0x00, 0x1e, 0x00, 0x0f, 0x80, 0x0f, 0xc0, 0x07, 0xe0, 0x03,
   0xf0, 0x01, 0xf8, 0x00, 0x30, 0x00 };
