#define 9s_width 64
#define 9s_height 64
static unsigned char 9s_bits[] = {
   0x00, 0x00, 0x00, 0x00, 0x01, 0x00, 0x00, 0x00, 0x00, 0x00, 0x00, 0x10,
   0x05, 0x00, 0x00, 0x00, 0x00, 0x00, 0x00, 0x10, 0x07, 0x00, 0x00, 0x00,
   0x00, 0x00, 0x00, 0xf0, 0x03, 0x00, 0x00, 0x00, 0x00, 0x00, 0x00, 0xf8,
   0x01, 0x00, 0x00, 0x00, 0x00, 0x00, 0x00, 0x1c, 0x01, 0x00, 0x00, 0x00,
   0x00, 0x00, 0x00, 0x14, 0x01, 0x00, 0x00, 0x00, 0x00, 0x00, 0x00, 0x10,
   0x05, 0x00, 0x00, 0x00, 0x00, 0x00, 0x00, 0x10, 0x07, 0x00, 0x00, 0x00,
   0x00, 0x00, 0x00, 0xf0, 0x03, 0x00, 0x00, 0x00, 0x00, 0x00, 0x00, 0xf8,
   0x01, 0x00, 0x00, 0x00, 0x00, 0x00, 0x00, 0x1c, 0x01, 0x00, 0x00, 0x00,
   0x00, 0x00, 0x00, 0x14, 0x01, 0x00, 0x00, 0x00, 0x00, 0x00, 0x00, 0x10,
   0x00, 0x00, 0x00, 0x00, 0x00, 0x00, 0x00, 0x10, 0x00, 0x00, 0x00, 0x00,
   0x00, 0x00, 0x00, 0x00, 0x00, 0x00, 0x00, 0x00, 0x00, 0x00, 0x00, 0xf0,
   0x01, 0x00, 0x00, 0x00, 0x00, 0x00, 0x00, 0xf8, 0x03, 0x00, 0x00, 0x00,
   0x00, 0x00, 0x00, 0x1c, 0x03, 0x00, 0x00, 0x00, 0x00, 0x00, 0x00, 0x0c,
   0x06, 0x00, 0x00, 0x00, 0x00, 0x00, 0x00, 0x0c, 0x06, 0x00, 0x00, 0x00,
   0x00, 0x00, 0x00, 0x0c, 0x06, 0x00, 0x00, 0xc0, 0x00, 0x00, 0x00, 0x1c,
   0x07, 0x00, 0x00, 0xf8, 0x00, 0x00, 0x00, 0xf8, 0x07, 0x00, 0x00, 0x3f,
   0x00, 0x00, 0x00, 0xf0, 0x02, 0x00, 0xe0, 0x07, 0x00, 0x00, 0x00, 0x00,
   0x03, 0x00, 0xfc, 0x00, 0x00, 0x00, 0x00, 0x80, 0x01, 0x80, 0x1f, 0x00,
   0x00, 0x00, 0x00, 0xc0, 0x01, 0xf0, 0x03, 0x00, 0x00, 0x00, 0x00, 0xe0,
   0x00, 0x7e, 0x00, 0x00, 0x00, 0x00, 0x00, 0x30, 0xc0, 0x0f, 0x00, 0x00,
   0x00, 0x00, 0x00, 0x00, 0xf8, 0x01, 0x00, 0x02, 0x00, 0x00, 0x00, 0x00,
   0x3f, 0x00, 0x00, 0x02, 0x00, 0x00, 0x00, 0xe0, 0x07, 0x00, 0x00, 0x02,
   0x00, 0x00, 0x00, 0xfc, 0x00, 0x00, 0x00, 0x02, 0x00, 0x00, 0x80, 0x1f,
   0x00, 0x00, 0x00, 0x02, 0x00, 0x00, 0xf0, 0x03, 0x00, 0x00, 0x00, 0x02,
   0x00, 0x00, 0x7e, 0x00, 0x00, 0x00, 0x00, 0x1a, 0x00, 0xc0, 0x0f, 0x00,
   0x00, 0x00, 0x00, 0x26, 0x00, 0xf8, 0x01, 0x00, 0x00, 0x00, 0x00, 0x22,
   0x00, 0x3f, 0x00, 0x00, 0x00, 0x00, 0x00, 0x22, 0xe0, 0x07, 0x00, 0x00,
   0x00, 0x00, 0x00, 0x22, 0xfc, 0x00, 0x00, 0x00, 0x00, 0x00, 0x00, 0x12,
   0x1f, 0x00, 0x00, 0x00, 0x00, 0x00, 0x00, 0x0a, 0x03, 0x00, 0x00, 0x00,
   0x00, 0x00, 0x00, 0x06, 0x00, 0x00, 0x00, 0x00, 0x00, 0x00, 0x00, 0x02,
   0x00, 0x00, 0x00, 0x00, 0x00, 0x00, 0x00, 0x00, 0x00, 0x00, 0x00, 0x00,
   0x00, 0x00, 0x00, 0x00, 0x00, 0x00, 0x00, 0x00, 0x00, 0x00, 0x00, 0x00,
   0x00, 0x00, 0x00, 0x00, 0x00, 0x00, 0x00, 0x00, 0x00, 0x00, 0x00, 0x00,
   0x00, 0x00, 0x00, 0x00, 0x00, 0x00, 0x00, 0x00, 0x00, 0x00, 0x00, 0x3e,
   0x00, 0x00, 0x00, 0x00, 0x00, 0x00, 0x00, 0x7f, 0x00, 0x00, 0x00, 0x00,
   0x00, 0x00, 0x80, 0x63, 0x00, 0x00, 0x00, 0x00, 0x00, 0x00, 0x80, 0xc1,
   0x00, 0x00, 0x00, 0x00, 0x00, 0x00, 0x80, 0xc1, 0x00, 0x00, 0x00, 0x00,
   0x00, 0x00, 0x80, 0xc1, 0x00, 0x00, 0x00, 0x00, 0x00, 0x00, 0x80, 0xe3,
   0x00, 0x00, 0x00, 0x00, 0x00, 0x00, 0x00, 0xff, 0x00, 0x00, 0x00, 0x00,
   0x00, 0x00, 0x00, 0x5e, 0x00, 0x00, 0x00, 0x00, 0x00, 0x00, 0x00, 0x60,
   0x00, 0x00, 0x00, 0x00, 0x00, 0x00, 0x00, 0x30, 0x00, 0x00, 0x00, 0x00,
   0x00, 0x00, 0x00, 0x38, 0x00, 0x00, 0x00, 0x00, 0x00, 0x00, 0x00, 0x1c,
   0x00, 0x00, 0x00, 0x00, 0x00, 0x00, 0x00, 0x06 };
