#define ab_width 64
#define ab_height 64
static unsigned char ab_bits[] = {
   0x00, 0x30, 0x00, 0x00, 0x00, 0x00, 0x00, 0x00, 0x00, 0x78, 0x00, 0x00,
   0x00, 0x00, 0x00, 0x00, 0x00, 0x78, 0x00, 0x00, 0x00, 0x00, 0x00, 0x00,
   0x00, 0x78, 0x00, 0x00, 0x00, 0x00, 0x00, 0x00, 0x00, 0xfc, 0x00, 0x00,
   0x00, 0x00, 0x00, 0x00, 0x00, 0xfc, 0x00, 0x00, 0x00, 0x00, 0x00, 0x00,
   0x00, 0xfe, 0x01, 0x00, 0x00, 0x00, 0x00, 0x00, 0x00, 0xfe, 0x01, 0x00,
   0x00, 0x00, 0x00, 0x00, 0x00, 0xfe, 0x01, 0x00, 0x00, 0x00, 0x00, 0x00,
   0x00, 0xff, 0x03, 0x00, 0x00, 0x00, 0x00, 0x00, 0x00, 0xcf, 0x03, 0x00,
   0x00, 0x00, 0x00, 0x00, 0x80, 0xcf, 0x07, 0x00, 0x00, 0x00, 0x00, 0x00,
   0x80, 0xcf, 0x07, 0x00, 0x00, 0x00, 0x00, 0x00, 0x80, 0x87, 0x07, 0x00,
   0x00, 0x00, 0x00, 0x00, 0xc0, 0x87, 0x0f, 0x00, 0x00, 0x00, 0x00, 0x00,
   0xc0, 0x03, 0x0f, 0x00, 0x00, 0x00, 0x00, 0x00, 0xe0, 0x03, 0x1f, 0x00,
   0x00, 0x00, 0x00, 0x00, 0xe0, 0x03, 0x1f, 0x00, 0x00, 0x00, 0x00, 0x00,
   0xe0, 0x01, 0x1e, 0x00, 0x00, 0x00, 0x00, 0x00, 0xf0, 0xff, 0x3f, 0x00,
   0x00, 0x00, 0x00, 0x00, 0xf0, 0xff, 0x3f, 0x00, 0x00, 0x00, 0x00, 0x00,
   0xf8, 0xff, 0x7f, 0x00, 0x00, 0x00, 0x00, 0x00, 0xf8, 0xff, 0x7f, 0x00,
   0x00, 0x00, 0x00, 0x00, 0xf8, 0xff, 0x7f, 0x00, 0x00, 0x00, 0x00, 0x00,
   0x7c, 0x00, 0xf8, 0x00, 0x00, 0x00, 0x00, 0x00, 0x7c, 0x00, 0xf8, 0x00,
   0x00, 0x00, 0x00, 0x00, 0x3e, 0x00, 0xf0, 0x01, 0x00, 0x00, 0x00, 0x00,
   0x3e, 0x00, 0xf0, 0x01, 0x00, 0x00, 0x00, 0x00, 0x3e, 0x00, 0xf0, 0x01,
   0x00, 0x00, 0x00, 0x00, 0x1f, 0x00, 0xe0, 0x03, 0x00, 0x00, 0x00, 0x00,
   0x00, 0x00, 0x00, 0x00, 0x00, 0x00, 0x00, 0x00, 0x00, 0x00, 0x00, 0x00,
   0x00, 0x00, 0x00, 0x00, 0x00, 0x00, 0x00, 0x00, 0x00, 0x00, 0x00, 0x00,
   0x00, 0x00, 0x00, 0x00, 0x00, 0x00, 0x00, 0x00, 0x00, 0x00, 0x00, 0x00,
   0xfe, 0x1f, 0x00, 0x00, 0x00, 0x00, 0x00, 0x00, 0xfe, 0xff, 0x00, 0x00,
   0x00, 0x00, 0x00, 0x00, 0xfe, 0xff, 0x01, 0x00, 0x00, 0x00, 0x00, 0x00,
   0xfe, 0xff, 0x03, 0x00, 0x00, 0x00, 0x00, 0x00, 0xfe, 0xff, 0x03, 0x00,
   0x00, 0x00, 0x00, 0x00, 0x3e, 0xf0, 0x07, 0x00, 0x00, 0x00, 0x00, 0x00,
   0x3e, 0xc0, 0x07, 0x00, 0x00, 0x00, 0x00, 0x00, 0x3e, 0xc0, 0x07, 0x00,
   0x00, 0x00, 0x00, 0x00, 0x3e, 0xc0, 0x07, 0x00, 0x00, 0x00, 0x00, 0x00,
   0x3e, 0xe0, 0x03, 0x00, 0x00, 0x00, 0x00, 0x00, 0x3e, 0xf0, 0x03, 0x00,
   0x00, 0x00, 0x00, 0x00, 0xfe, 0xff, 0x01, 0x00, 0x00, 0x00, 0x00, 0x00,
   0xfe, 0x7f, 0x00, 0x00, 0x00, 0x00, 0x00, 0x00, 0xfe, 0xff, 0x01, 0x00,
   0x00, 0x00, 0x00, 0x00, 0xfe, 0xff, 0x07, 0x00, 0x00, 0x00, 0x00, 0x00,
   0xfe, 0xff, 0x07, 0x00, 0x00, 0x00, 0x00, 0x00, 0x3e, 0xe0, 0x0f, 0x00,
   0x00, 0x00, 0x00, 0x00, 0x3e, 0x80, 0x0f, 0x00, 0x00, 0x00, 0x00, 0x00,
   0x3e, 0x00, 0x1f, 0x00, 0x00, 0x00, 0x00, 0x00, 0x3e, 0x00, 0x1f, 0x00,
   0x00, 0x00, 0x00, 0x00, 0x3e, 0x00, 0x1f, 0x00, 0x00, 0x00, 0x00, 0x00,
   0x3e, 0x00, 0x1f, 0x00, 0x00, 0x00, 0x00, 0x00, 0x3e, 0x00, 0x1f, 0x00,
   0x00, 0x00, 0x00, 0x00, 0x3e, 0x80, 0x1f, 0x00, 0x00, 0x00, 0x00, 0x00,
   0x3e, 0xe0, 0x0f, 0x00, 0x00, 0x00, 0x00, 0x00, 0xfe, 0xff, 0x0f, 0x00,
   0x00, 0x00, 0x00, 0x00, 0xfe, 0xff, 0x07, 0x00, 0x00, 0x00, 0x00, 0x00,
   0xfe, 0xff, 0x03, 0x00, 0x00, 0x00, 0x00, 0x00, 0xfe, 0xff, 0x00, 0x00,
   0x00, 0x00, 0x00, 0x00, 0xfe, 0x3f, 0x00, 0x00 };
